<?xml version="1.0" encoding="UTF-8" standalone="no"?>
<svg
   aria-hidden="true"
   focusable="false"
   data-prefix="fab"
   data-icon="earlybirds"
   class="svg-inline--fa fa-earlybirds fa-w-15"
   role="img"
   viewBox="0 0 256 128"
   version="1.1"
   id="svg888"
   sodipodi:docname="authorization.svg"
   width="256"
   height="128"
   inkscape:version="1.1.1 (3bf5ae0d25, 2021-09-20)"
   xmlns:inkscape="http://www.inkscape.org/namespaces/inkscape"
   xmlns:sodipodi="http://sodipodi.sourceforge.net/DTD/sodipodi-0.dtd"
   xmlns="http://www.w3.org/2000/svg"
   xmlns:svg="http://www.w3.org/2000/svg">
  <defs
     id="defs892" />
  <sodipodi:namedview
     id="namedview890"
     pagecolor="#ffffff"
     bordercolor="#666666"
     borderopacity="1.0"
     inkscape:pageshadow="2"
     inkscape:pageopacity="0.0"
     inkscape:pagecheckerboard="0"
     showgrid="false"
     inkscape:showpageshadow="false"
     inkscape:zoom="3.2292706"
     inkscape:cx="89.029393"
     inkscape:cy="69.984844"
     inkscape:window-width="2531"
     inkscape:window-height="1048"
     inkscape:window-x="29"
     inkscape:window-y="0"
     inkscape:window-maximized="1"
     inkscape:current-layer="svg888" />
  <path
     id="path886"
     style="fill:#d9534f;fill-opacity:1;stroke-width:0.258002"
     d="m 58.236328,0.01757813 c -0.182113,-0.02574984 -0.308456,-0.02384712 -0.363281,0.0019531 -0.258003,0.1290011 -3.328294,5.41858425 0.619141,10.42382775 -9.210684,1.754416 -15.790402,6.836488 -20.873047,12.460938 -10.397492,0.335403 -21.903158,0.723672 -23.451172,8.902344 -0.670806,0.154803 -2.993541,0.205518 -3.277344,0.669921 -0.0774,0.129004 -0.541741,2.091195 -0.619141,3.97461 0.103201,3.612034 1.755405,6.578191 6.089844,5.958984 1.16101,6.217857 0.437111,10.527141 4.152344,15.583985 -0.283803,1.677013 -0.514712,3.404606 -0.695313,5.107421 -11.6875043,7.946472 -19.94339864,12.384243 -17.2343746,18.9375 2.760625,6.708059 11.1456456,3.095401 17.5957036,-0.207031 2.889625,16.305748 13.88059,26.497059 29.644531,30.496089 -9.159084,-0.38699 -15.687435,-0.72265 -16.306641,-0.72265 -5.392248,0 -5.392248,8.1543 0,8.1543 0.541805,0 6.47663,-0.56858 15.945313,-0.80079 l -0.310547,3.19922 c -0.438605,3.94744 4.877483,5.67639 6.8125,2.19336 -0.0258,4.77304 7.120179,4.90155 7.300781,0.1543 l 0.128906,-1.36719 c 0.335405,5.88245 7.534529,4.87605 7.328125,0.25781 1.083612,4.66984 8.099549,3.07023 7.119141,-1.5996 l -0.257813,-2.99219 c 8.204473,-0.258 18.524882,-0.54211 30.367186,-3.30274 6.32105,-1.47061 8.46292,-2.19371 12.15235,-2.78711 3.76683,-0.51601 -0.12998,-3.63608 -0.80079,-3.42968 -0.4128,0.129 -1.31473,0.30881 -2.52734,0.54101 3.48303,-3.53463 2.19211,-8.64393 1.7793,-8.92773 -0.4644,-0.3096 -5.5722,0.28473 -7.79102,3.50976 -1.78021,-2.52842 -5.21105,-3.19899 -5.57226,-2.96679 -0.4128,0.258 -2.58111,6.26963 2.52734,9.83007 -8.668881,1.26421 -16.460029,2.42567 -25.128906,2.06446 -6.708061,-0.2838 -6.114007,-0.0276 -6.191406,-0.25977 17.595757,-3.30243 29.102912,-14.215013 32.585942,-32.042967 5.98565,3.147629 13.93209,6.500651 16.48632,0.308594 2.58002,-6.295255 -6.01251,-10.706508 -15.55859,-17.259766 -0.2064,-3.250827 -0.61908,-6.371999 -1.23828,-9.390625 1.54801,-3.818435 1.41853,-7.843201 2.24414,-12.30664 4.33444,0.593405 5.96084,-2.374707 6.08984,-5.960938 -0.0774,-1.883416 -0.54174,-3.843656 -0.61914,-3.972656 -0.2838,-0.464405 -2.58073,-0.51512 -3.27734,-0.669922 -1.36741,-7.249864 -10.5787,-8.386435 -19.89258,-8.773438 C 87.078294,16.299753 78.848664,10.830742 68.451172,9.9277344 71.366597,7.1155094 69.998646,3.4008958 69.714844,3.2460938 69.379439,3.0654927 65.999815,3.7354384 64.658203,6.0058594 63.506869,1.7391462 59.511122,0.19782696 58.236328,0.01757813 Z M 41.53125,6.8535156 c -1.654893,-0.027665 -3.472242,0.2785979 -5.097656,0.8300782 -0.258003,0.0774 -7.404996,2.7089802 -5.392578,4.3085942 7.920671,-2.0898194 15.995875,5.15983 15.763672,-1.832032 C 46.595062,7.8703857 44.289405,6.8996234 41.53125,6.8535156 Z m 46.169922,0.3378906 c -2.510232,0.036533 -4.60728,0.9232626 -4.800781,3.0195318 -0.206401,6.372657 7.145485,-0.231483 14.34375,1.677734 C 99.101757,10.469659 92.573998,8.0441969 92.341797,7.9667969 90.861509,7.4540174 89.207311,7.1694862 87.701172,7.1914062 Z M 46.548828,29.669922 c 5.405215,0.437504 9.198635,2.503616 9.054688,9.541016 0.103201,4.72144 -1.651961,15.041575 -3.767578,17.466796 -3.32823,3.870037 -19.737202,3.044644 -22.265626,1.832032 -4.463439,-2.141418 -8.927554,-14.31869 -5.986328,-19.710938 10.734962,-6.63172 10.809609,-6.850825 22.964844,-9.128906 z m 32.830078,0.18164 c 9.166522,2.035932 9.2989,2.03709 24.650394,8.947266 3.14763,5.779252 -2.1931,17.775509 -6.269534,19.736328 -2.502623,1.21261 -18.911595,2.012204 -22.265625,-1.832031 -2.115619,-2.451023 -3.5333,-12.770747 -3.404297,-17.492187 -0.129085,-6.325058 2.841718,-8.637658 7.289062,-9.359376 z m -36.082031,9.384766 c -2.270421,0 -4.128906,1.858487 -4.128906,4.128906 0,2.270421 1.858485,4.126954 4.128906,4.126954 2.270419,0 4.126953,-1.856533 4.126953,-4.126954 0,-2.270419 -1.856534,-4.128906 -4.126953,-4.128906 z m 41.203125,0 c -2.270419,0 -4.128906,1.858487 -4.128906,4.128906 0,2.270421 1.858487,4.126954 4.128906,4.126954 2.270421,0 4.126953,-1.856533 4.126953,-4.126954 0,-2.270419 -1.856532,-4.128906 -4.126953,-4.128906 z M 63.652344,45.71875 c 0.580505,0 1.161919,0.03316 1.419922,0.09766 2.399421,0.670806 2.837854,5.236319 3.947265,8.435547 -3.431431,0.748207 -3.947229,3.664063 -5.05664,3.664063 -1.135211,0 -2.142001,-2.501954 -6.115235,-2.501954 1.599612,-3.895833 1.806698,-8.87525 4.386719,-9.597656 0.258003,-0.0645 0.837464,-0.09766 1.417969,-0.09766 z m 36.078125,14.419922 3.138671,3.689453 c 2.95691,4.032132 -4.061224,7.477319 -6.878906,3.970703 3.412881,-2.17886 4.274716,-5.725326 3.740235,-7.660156 z" />
  <path
     d="m 147.14624,56.011537 v 9.272323 q 0,5.10691 -0.21176,7.503449 -0.21176,2.368009 -0.90586,4.450715 -0.69409,2.054177 -1.78819,3.052735 -1.08232,0.970027 -2.49405,0.970027 -1.57643,0 -2.67052,-0.827377 -1.09409,-0.855906 -1.70583,-2.539189 -0.59999,-1.711815 -0.85881,-4.108352 -0.25881,-2.425069 -0.25881,-7.246678 v -9.700276 q 0,-5.278092 0.47057,-8.245236 0.47058,-2.967143 1.69408,-4.764547 1.22349,-1.797405 3.12933,-1.797405 1.59995,0 2.7411,1.16974 1.15291,1.141208 1.77643,2.995673 0.62351,1.854465 0.84704,3.82305 0.23528,1.968585 0.23528,5.991348 z m -4.75282,-2.853023 q 0,-2.910083 -0.1294,-3.651869 -0.12941,-0.770316 -0.55293,-0.770316 -0.42352,0 -0.56469,0.770316 -0.14118,0.741786 -0.14118,3.651869 V 70.24812 q 0,2.681841 0.14118,3.509217 0.14117,0.798845 0.55292,0.798845 0.42352,0 0.55293,-0.741785 0.14117,-0.741786 0.14117,-3.195385 z"
     style="font-size:37.5204px;line-height:1.25;font-family:Impact;-inkscape-font-specification:Impact;fill:#d9534f;stroke-width:4.69008;fill-opacity:1"
     id="path16768" />
  <path
     d="m 159.46357,56.011537 v 9.272323 q 0,5.10691 -0.21176,7.503449 -0.21176,2.368009 -0.90586,4.450715 -0.6941,2.054177 -1.78819,3.052735 -1.08232,0.970027 -2.49405,0.970027 -1.57643,0 -2.67052,-0.827377 -1.09409,-0.855906 -1.70584,-2.539189 -0.59998,-1.711815 -0.8588,-4.108352 -0.25881,-2.425069 -0.25881,-7.246678 v -9.700276 q 0,-5.278092 0.47057,-8.245236 0.47058,-2.967143 1.69407,-4.764547 1.22351,-1.797405 3.12934,-1.797405 1.59996,0 2.7411,1.16974 1.15292,1.141208 1.77642,2.995673 0.62352,1.854465 0.84704,3.82305 0.23529,1.968585 0.23529,5.991348 z m -4.75282,-2.853023 q 0,-2.910083 -0.12941,-3.651869 -0.12941,-0.770316 -0.55293,-0.770316 -0.42351,0 -0.56468,0.770316 -0.14118,0.741786 -0.14118,3.651869 V 70.24812 q 0,2.681841 0.14118,3.509217 0.14117,0.798845 0.55292,0.798845 0.42352,0 0.55293,-0.741785 0.14117,-0.741786 0.14117,-3.195385 z"
     style="font-size:37.5204px;line-height:1.25;font-family:Impact;-inkscape-font-specification:Impact;fill:#d9534f;stroke-width:4.69008;fill-opacity:1"
     id="path16765" />
  <path
     d="m 171.7809,56.011537 v 9.272323 q 0,5.10691 -0.21176,7.503449 -0.21176,2.368009 -0.90586,4.450715 -0.6941,2.054177 -1.78819,3.052735 -1.08232,0.970027 -2.49405,0.970027 -1.57643,0 -2.67052,-0.827377 -1.09409,-0.855906 -1.70584,-2.539189 -0.59999,-1.711815 -0.8588,-4.108352 -0.25882,-2.425069 -0.25882,-7.246678 v -9.700276 q 0,-5.278092 0.47058,-8.245236 0.47057,-2.967143 1.69407,-4.764547 1.2235,-1.797405 3.12933,-1.797405 1.59996,0 2.74111,1.16974 1.15291,1.141208 1.77642,2.995673 0.62352,1.854465 0.84704,3.82305 0.23529,1.968585 0.23529,5.991348 z m -4.75282,-2.853023 q 0,-2.910083 -0.12941,-3.651869 -0.12941,-0.770316 -0.55292,-0.770316 -0.42352,0 -0.5647,0.770316 -0.14117,0.741786 -0.14117,3.651869 V 70.24812 q 0,2.681841 0.14117,3.509217 0.14118,0.798845 0.55293,0.798845 0.42352,0 0.55293,-0.741785 0.14117,-0.741786 0.14117,-3.195385 z"
     style="font-size:37.5204px;line-height:1.25;font-family:Impact;-inkscape-font-specification:Impact;fill:#d9534f;stroke-width:4.69008;fill-opacity:1"
     id="path16762" />
  <path
     d="m 184.09822,56.011537 v 9.272323 q 0,5.10691 -0.21176,7.503449 -0.21175,2.368009 -0.90585,4.450715 -0.6941,2.054177 -1.78819,3.052735 -1.08233,0.970027 -2.49405,0.970027 -1.57643,0 -2.67053,-0.827377 -1.09408,-0.855906 -1.70583,-2.539189 -0.59998,-1.711815 -0.8588,-4.108352 -0.25882,-2.425069 -0.25882,-7.246678 v -9.700276 q 0,-5.278092 0.47058,-8.245236 0.47057,-2.967143 1.69407,-4.764547 1.2235,-1.797405 3.12933,-1.797405 1.59996,0 2.74111,1.16974 1.15291,1.141208 1.77642,2.995673 0.62351,1.854465 0.84704,3.82305 0.23528,1.968585 0.23528,5.991348 z m -4.75281,-2.853023 q 0,-2.910083 -0.12941,-3.651869 -0.12941,-0.770316 -0.55293,-0.770316 -0.42352,0 -0.56469,0.770316 -0.14117,0.741786 -0.14117,3.651869 V 70.24812 q 0,2.681841 0.14117,3.509217 0.14117,0.798845 0.55293,0.798845 0.42352,0 0.55292,-0.741785 0.14118,-0.741786 0.14118,-3.195385 z"
     style="font-size:37.5204px;line-height:1.25;font-family:Impact;-inkscape-font-specification:Impact;fill:#d9534f;stroke-width:4.69008;fill-opacity:1"
     id="path16759" />
  <path
     d="m 196.41556,56.011537 v 9.272323 q 0,5.10691 -0.21176,7.503449 -0.21176,2.368009 -0.90586,4.450715 -0.6941,2.054177 -1.78819,3.052735 -1.08233,0.970027 -2.49406,0.970027 -1.57643,0 -2.67051,-0.827377 -1.09409,-0.855906 -1.70584,-2.539189 -0.59999,-1.711815 -0.8588,-4.108352 -0.25882,-2.425069 -0.25882,-7.246678 v -9.700276 q 0,-5.278092 0.47058,-8.245236 0.47057,-2.967143 1.69407,-4.764547 1.2235,-1.797405 3.12933,-1.797405 1.59996,0 2.7411,1.16974 1.15292,1.141208 1.77643,2.995673 0.62352,1.854465 0.84704,3.82305 0.23529,1.968585 0.23529,5.991348 z m -4.75282,-2.853023 q 0,-2.910083 -0.12941,-3.651869 -0.12941,-0.770316 -0.55293,-0.770316 -0.42352,0 -0.56469,0.770316 -0.14117,0.741786 -0.14117,3.651869 V 70.24812 q 0,2.681841 0.14117,3.509217 0.14117,0.798845 0.55293,0.798845 0.42352,0 0.55292,-0.741785 0.14118,-0.741786 0.14118,-3.195385 z"
     style="font-size:37.5204px;line-height:1.25;font-family:Impact;-inkscape-font-specification:Impact;fill:#d9534f;stroke-width:4.69008;fill-opacity:1"
     id="path16756" />
  <path
     d="m 205.39179,71.161086 v 9.414975 h -3.58814 v -9.414975 z"
     style="font-size:37.5204px;line-height:1.25;font-family:Impact;-inkscape-font-specification:Impact;fill:#d9534f;stroke-width:4.69008;fill-opacity:1"
     id="path16753" />
  <path
     d="m 209.83874,71.161086 v 9.414975 h -3.58815 v -9.414975 z"
     style="font-size:37.5204px;line-height:1.25;font-family:Impact;-inkscape-font-specification:Impact;fill:#d9534f;stroke-width:4.69008;fill-opacity:1"
     id="path16750" />
  <path
     d="m 214.28568,71.161086 v 9.414975 h -3.58814 v -9.414975 z"
     style="font-size:37.5204px;line-height:1.25;font-family:Impact;-inkscape-font-specification:Impact;fill:#d9534f;stroke-width:4.69008;fill-opacity:1"
     id="path16747" />
  <path
     d="m 224.65011,42.716451 -0.0823,3.338038 q 0.63528,-2.025646 1.39996,-3.024204 0.76468,-0.998559 1.67054,-0.998559 1.10586,0 1.90583,1.455042 0.81175,1.426511 1.01175,3.309506 0.19999,1.882994 0.19999,6.390771 v 15.948396 q 0,5.16397 -0.25881,7.360797 -0.24706,2.168298 -1.03527,3.480688 -0.77645,1.28386 -1.88231,1.28386 -0.88233,0 -1.63525,-0.998558 -0.75292,-0.998558 -1.37643,-2.967144 v 8.67319 h -4.75282 V 42.716451 Z m 1.35291,11.012667 q 0,-3.509217 -0.10587,-4.251002 -0.10589,-0.741787 -0.58823,-0.741787 -0.47057,0 -0.61175,0.855908 -0.1294,0.855906 -0.1294,4.136881 v 15.691625 q 0,3.423627 0.14117,4.279533 0.14117,0.855906 0.61175,0.855906 0.45881,0 0.56469,-0.770314 0.11764,-0.798846 0.11764,-3.82305 z"
     style="font-size:37.5204px;line-height:1.25;font-family:Impact;-inkscape-font-specification:Impact;fill:#d9534f;stroke-width:4.69008;fill-opacity:1"
     id="path16744" />
  <path
     d="m 242.02614,54.813268 h -4.21166 v -2.054177 q 0,-2.624781 -0.1294,-3.309506 -0.11765,-0.713256 -0.61176,-0.713256 -0.39999,0 -0.59998,0.656195 -0.19999,0.627665 -0.19999,1.911525 0,1.740344 0.0941,2.567721 0.10588,0.798846 0.59999,1.768873 0.50587,0.970029 2.05876,2.824493 2.07054,2.4536 2.71758,4.621896 0.64704,2.168298 0.64704,6.30518 0,4.621897 -0.4941,6.989906 -0.4941,2.339479 -1.65878,3.623339 -1.15291,1.255329 -2.78816,1.255329 -1.81172,0 -3.10581,-1.36945 -1.28231,-1.369452 -1.76465,-3.708931 -0.48234,-2.339477 -0.48234,-7.075495 v -1.825934 h 4.21165 v 2.396539 q 0,3.052734 0.15293,3.965701 0.16471,0.912966 0.63528,0.912966 0.50587,0 0.70587,-0.599133 0.19999,-0.627665 0.19999,-2.59625 0,-2.710373 -0.25881,-3.395098 -0.27058,-0.684725 -2.76464,-4.051292 -2.09406,-2.853022 -2.55287,-5.16397 -0.45882,-2.339479 -0.45882,-5.534865 0,-4.536306 0.49411,-6.676073 0.4941,-2.168296 1.67054,-3.338035 1.18821,-1.16974 2.75287,-1.16974 1.55291,0 2.63523,0.970028 1.09409,0.941497 1.67055,2.51066 0.58821,1.569162 0.70586,2.910083 0.12941,1.340921 0.12941,4.193944 z"
     style="font-size:37.5204px;line-height:1.25;font-family:Impact;-inkscape-font-specification:Impact;fill:#d9534f;stroke-width:4.69008;fill-opacity:1"
     id="path16741" />
</svg>
