<?xml version="1.0" encoding="UTF-8" standalone="no"?>
<!-- Created with Inkscape (http://www.inkscape.org/) -->

<svg
   width="24"
   height="24"
   viewBox="0 0 6.3499999 6.3500002"
   version="1.1"
   id="svg5"
   inkscape:version="1.1.1 (3bf5ae0d25, 2021-09-20, custom)"
   sodipodi:docname="icon_generic.svg"
   xmlns:inkscape="http://www.inkscape.org/namespaces/inkscape"
   xmlns:sodipodi="http://sodipodi.sourceforge.net/DTD/sodipodi-0.dtd"
   xmlns="http://www.w3.org/2000/svg"
   xmlns:svg="http://www.w3.org/2000/svg">
  <sodipodi:namedview
     id="namedview7"
     pagecolor="#ffffff"
     bordercolor="#666666"
     borderopacity="1.0"
     inkscape:pageshadow="2"
     inkscape:pageopacity="0.0"
     inkscape:pagecheckerboard="0"
     inkscape:document-units="px"
     showgrid="false"
     units="px"
     inkscape:showpageshadow="false"
     inkscape:zoom="17.743044"
     inkscape:cx="26.235634"
     inkscape:cy="14.87907"
     inkscape:window-width="2531"
     inkscape:window-height="1048"
     inkscape:window-x="29"
     inkscape:window-y="0"
     inkscape:window-maximized="1"
     inkscape:current-layer="g1123" />
  <defs
     id="defs2" />
  <g
     inkscape:label="Livello 1"
     inkscape:groupmode="layer"
     id="layer1">
    <g
       id="g1123"
       transform="matrix(0.81364837,0,0,0.81364837,12.368059,-236.1838)">
      <path
         id="rect1084"
         d="m -15.193911,290.28458 7.7975231,-0.007 -0.00683,7.79715 -7.7975241,0.007 z"
         style="fill:#ffffff;fill-opacity:1;stroke:none;stroke-width:0.409767;stroke-linecap:round;stroke-linejoin:round;stroke-miterlimit:4;stroke-dasharray:none;stroke-opacity:1"
         inkscape:connector-curvature="0" />
      <path
         d="m -13.229605,293.95916 q -0.103757,-0.0994 -0.211838,-0.14843 -0.10808,-0.049 -0.227689,-0.049 -0.185899,0 -0.299744,0.11529 -0.112404,0.11384 -0.112404,0.30407 0,0.18589 0.108081,0.29686 0.108081,0.11096 0.289656,0.11096 0.109522,0 0.221925,-0.0461 0.113845,-0.0476 0.247865,-0.14987 l -0.0245,0.79404 q -0.123933,0.0504 -0.247865,0.0749 -0.123932,0.0259 -0.247865,0.0259 -0.154195,0 -0.296861,-0.0346 -0.142666,-0.0346 -0.257952,-0.098 -0.279569,-0.1614 -0.423676,-0.40782 -0.142666,-0.24643 -0.142666,-0.56634 0,-0.23634 0.0807,-0.43809 0.08214,-0.20175 0.237777,-0.35595 0.157077,-0.15563 0.363151,-0.23489 0.207514,-0.0807 0.448174,-0.0807 0.128255,0 0.252188,0.0274 0.125373,0.0259 0.243541,0.0793 z"
         id="path3299"
         style="font-size:2.95132px;line-height:1.25;font-family:'Futura XBlk BT';-inkscape-font-specification:'Futura XBlk BT';stroke-width:0.553372;fill:#cb5345;fill-opacity:1" />
      <path
         d="M -11.552194,294.47651 H -11.8822 v -0.49573 h 1.165829 q 0.0029,0.0648 0.0043,0.0966 0.0014,0.0317 0.0014,0.0562 0,0.18158 -0.03459,0.33145 -0.03459,0.14987 -0.100875,0.26515 -0.1614,0.27093 -0.41647,0.41503 -0.255071,0.14267 -0.579312,0.14267 -0.239219,0 -0.445292,-0.0793 -0.204633,-0.0807 -0.363151,-0.23633 -0.157077,-0.15564 -0.237777,-0.35595 -0.0807,-0.20031 -0.0807,-0.4352 0,-0.23634 0.0807,-0.43665 0.08214,-0.20175 0.237777,-0.3545 0.157077,-0.1542 0.363151,-0.2349 0.206073,-0.0807 0.445292,-0.0807 0.324241,0 0.576429,0.14267 0.252188,0.14122 0.412148,0.41503 l -0.675864,0.25074 q -0.05332,-0.0879 -0.128256,-0.13113 -0.07494,-0.0432 -0.171488,-0.0432 -0.168605,0 -0.26948,0.12826 -0.09943,0.12825 -0.09943,0.34442 0,0.22336 0.100876,0.34729 0.100875,0.1225 0.285332,0.1225 0.109522,0 0.177252,-0.0461 0.06917,-0.0461 0.08214,-0.12825 z"
         id="path3296"
         style="font-size:2.95132px;line-height:1.25;font-family:'Futura XBlk BT';-inkscape-font-specification:'Futura XBlk BT';stroke-width:0.553372;fill:#cb5345;fill-opacity:1" />
      <path
         d="m -10.41951,295.23163 v -2.10973 h 0.7709749 v 2.10973 z"
         id="path3293"
         style="font-size:2.95132px;line-height:1.25;font-family:'Futura XBlk BT';-inkscape-font-specification:'Futura XBlk BT';stroke-width:0.553372;fill:#cb5345;fill-opacity:1" />
      <path
         d="m -9.2392703,295.23163 v -2.10973 h 0.7594461 v 1.42522 h 0.73783 v 0.68451 z"
         id="path3290"
         style="font-size:2.95132px;line-height:1.25;font-family:'Futura XBlk BT';-inkscape-font-specification:'Futura XBlk BT';stroke-width:0.553372;fill:#cb5345;fill-opacity:1" />
    </g>
  </g>
</svg>
