<?xml version="1.0" encoding="UTF-8" standalone="no"?>
<!-- Created with Inkscape (http://www.inkscape.org/) -->

<svg
   width="24"
   height="24"
   viewBox="0 0 6.3499999 6.3500002"
   version="1.1"
   id="svg5"
   inkscape:version="1.1.1 (3bf5ae0d25, 2021-09-20, custom)"
   sodipodi:docname="icon_inca.svg"
   xmlns:inkscape="http://www.inkscape.org/namespaces/inkscape"
   xmlns:sodipodi="http://sodipodi.sourceforge.net/DTD/sodipodi-0.dtd"
   xmlns="http://www.w3.org/2000/svg"
   xmlns:svg="http://www.w3.org/2000/svg">
  <sodipodi:namedview
     id="namedview7"
     pagecolor="#ffffff"
     bordercolor="#666666"
     borderopacity="1.0"
     inkscape:pageshadow="2"
     inkscape:pageopacity="0.0"
     inkscape:pagecheckerboard="0"
     inkscape:document-units="px"
     showgrid="false"
     units="px"
     inkscape:showpageshadow="false"
     inkscape:zoom="17.743044"
     inkscape:cx="26.235634"
     inkscape:cy="14.90725"
     inkscape:window-width="2531"
     inkscape:window-height="1048"
     inkscape:window-x="29"
     inkscape:window-y="0"
     inkscape:window-maximized="1"
     inkscape:current-layer="g1123" />
  <defs
     id="defs2" />
  <g
     inkscape:label="Livello 1"
     inkscape:groupmode="layer"
     id="layer1">
    <g
       id="g1123"
       transform="matrix(0.81364837,0,0,0.81364837,12.368059,-236.1838)">
      <path
         sodipodi:nodetypes="cccc"
         inkscape:connector-curvature="0"
         id="rect1086"
         d="m -15.174196,290.30902 v 1.32392 l 4.92373,-1.32392 z"
         style="fill:#ffffff;fill-opacity:1;stroke:none;stroke-width:0.334289;stroke-linecap:round;stroke-linejoin:round;stroke-miterlimit:4;stroke-dasharray:none;stroke-opacity:1" />
      <path
         id="rect1084"
         d="m -15.179272,291.92674 6.1336285,-1.64926 1.643501,6.1551 -6.1336295,1.64926 z"
         style="fill:#ffffff;fill-opacity:1;stroke:none;stroke-width:0.334291;stroke-linecap:round;stroke-linejoin:round;stroke-miterlimit:4;stroke-dasharray:none;stroke-opacity:1"
         inkscape:connector-curvature="0" />
      <path
         style="fill:#ffffff;fill-opacity:1;stroke:none;stroke-width:0.334291;stroke-linecap:round;stroke-linejoin:round;stroke-miterlimit:4;stroke-dasharray:none;stroke-opacity:1"
         d="m -7.4021437,298.0683 v -1.32392 l -4.9237303,1.32392 z"
         id="path1094"
         inkscape:connector-curvature="0"
         sodipodi:nodetypes="cccc" />
      <path
         style="fill:#ffffff;fill-opacity:1;stroke:none;stroke-width:0.334291;stroke-linecap:round;stroke-linejoin:round;stroke-miterlimit:4;stroke-dasharray:none;stroke-opacity:1"
         d="M -7.3963877,290.27748 H -8.715687 l 1.3192993,4.94097 z"
         id="path1096"
         inkscape:connector-curvature="0"
         sodipodi:nodetypes="cccc" />
      <path
         sodipodi:nodetypes="cccc"
         inkscape:connector-curvature="0"
         id="path1098"
         d="m -15.200742,298.08184 h 1.3193 l -1.3193,-4.94097 z"
         style="fill:#ffffff;fill-opacity:1;stroke:none;stroke-width:0.334291;stroke-linecap:round;stroke-linejoin:round;stroke-miterlimit:4;stroke-dasharray:none;stroke-opacity:1" />
      <path
         sodipodi:nodetypes="scscscscsccscsccccscsccc"
         inkscape:connector-curvature="0"
         id="path1104"
         style="font-style:normal;font-variant:normal;font-weight:normal;font-stretch:normal;font-size:13.2611px;line-height:1.25;font-family:'.Savoye LET CC.';-inkscape-font-specification:'.Savoye LET CC., Normal';font-variant-ligatures:normal;font-variant-caps:normal;font-variant-numeric:normal;font-feature-settings:normal;text-align:start;letter-spacing:0px;word-spacing:0px;writing-mode:lr-tb;text-anchor:start;fill:#cb5345;fill-opacity:1;stroke:#cb5345;stroke-width:0.18867;stroke-opacity:1"
         d="m -14.491302,293.18585 c 0.05175,-0.0139 0.09781,-0.009 0.138185,0.0142 0.04038,0.0234 0.0675,0.0611 0.08136,0.11299 0.01333,0.0499 0.0076,0.0964 -0.01715,0.13947 -0.02477,0.043 -0.06104,0.071 -0.108803,0.0838 -0.04578,0.0123 -0.09138,0.005 -0.1368,-0.021 -0.04542,-0.0263 -0.07427,-0.0625 -0.08654,-0.10838 -0.0128,-0.0479 -0.0068,-0.0934 0.01796,-0.13648 0.02477,-0.043 0.06203,-0.0713 0.111788,-0.0846 z m 0.429609,0.71085 4.64e-4,1.05628 c -5.89e-4,0.17355 0.01218,0.30925 0.03831,0.40712 0.01707,0.0639 0.04188,0.1129 0.07444,0.14695 0.03256,0.0341 0.06675,0.0463 0.102575,0.0366 0.0617,-0.0166 0.46433,-0.57476 0.560204,-0.75894 l 0.05896,0.0291 -0.02105,0.041 c -0.07771,0.16431 -0.460886,0.73545 -0.501824,0.79783 -0.04147,0.0604 -0.0851,0.0967 -0.130872,0.10904 -0.0617,0.0166 -0.122706,-1.9e-4 -0.183024,-0.0503 -0.05886,-0.0527 -0.100823,-0.12595 -0.125888,-0.21982 -0.016,-0.0599 -0.02939,-0.158 -0.04017,-0.29424 l -0.0919,-1.09912 z" />
      <path
         sodipodi:nodetypes="ccccsscsccccscsccccscsccsssccccc"
         inkscape:connector-curvature="0"
         id="path1106"
         style="font-style:normal;font-variant:normal;font-weight:normal;font-stretch:normal;font-size:13.2611px;line-height:1.25;font-family:'.Savoye LET CC.';-inkscape-font-specification:'.Savoye LET CC., Normal';font-variant-ligatures:normal;font-variant-caps:normal;font-variant-numeric:normal;font-feature-settings:normal;text-align:start;letter-spacing:0px;word-spacing:0px;writing-mode:lr-tb;text-anchor:start;fill:#cb5345;fill-opacity:1;stroke:#cb5345;stroke-width:0.18867;stroke-opacity:1"
         d="m -13.273663,295.59532 -0.126712,-1.74479 0.250815,-0.19909 0.03683,1.16851 c 0.07187,-0.39393 0.165136,-0.70371 0.279809,-0.92934 0.114672,-0.22563 0.246643,-0.35852 0.395913,-0.39866 0.07364,-0.0198 0.140014,-0.0109 0.199123,0.0267 0.05857,0.0356 0.0988,0.0944 0.12066,0.17626 0.01226,0.0459 0.01865,0.11379 0.01916,0.20357 l 0.0037,0.13385 0.008,0.38957 0.0013,0.12487 c 0.0021,0.12786 0.01175,0.22375 0.02881,0.28766 0.01706,0.0639 0.04188,0.1129 0.07444,0.14695 0.03203,0.0321 0.06595,0.0433 0.101776,0.0336 0.0617,-0.0166 0.365974,-0.49936 0.461849,-0.68354 l 0.05897,0.0291 -0.02106,0.041 c -0.07771,0.16432 -0.362531,0.66004 -0.40347,0.72242 -0.04147,0.0604 -0.08509,0.0967 -0.130871,0.10904 -0.0617,0.0166 -0.122707,-1.8e-4 -0.183024,-0.0503 -0.05886,-0.0527 -0.100824,-0.12595 -0.125888,-0.21982 -0.01707,-0.0639 -0.03046,-0.16199 -0.04017,-0.29424 l -0.05316,-0.66642 c -0.01074,-0.10415 -0.02145,-0.17619 -0.03211,-0.21613 -0.0112,-0.0419 -0.03068,-0.071 -0.05844,-0.087 -0.02776,-0.0161 -0.06055,-0.019 -0.09836,-0.009 -0.137329,0.0369 -0.267038,0.23021 -0.389128,0.57985 -0.05966,0.16802 -0.102669,0.3305 -0.129027,0.48743 -0.02689,0.15494 -0.04734,0.36594 -0.06136,0.633 l -0.0053,0.0881 z" />
      <path
         sodipodi:nodetypes="ccscsscscscscscscccsssccc"
         inkscape:connector-curvature="0"
         id="path1108"
         style="font-style:normal;font-variant:normal;font-weight:normal;font-stretch:normal;font-size:13.2611px;line-height:1.25;font-family:'.Savoye LET CC.';-inkscape-font-specification:'.Savoye LET CC., Normal';font-variant-ligatures:normal;font-variant-caps:normal;font-variant-numeric:normal;font-feature-settings:normal;text-align:start;letter-spacing:0px;word-spacing:0px;writing-mode:lr-tb;text-anchor:start;fill:#cb5345;fill-opacity:1;stroke:#cb5345;stroke-width:0.18867;stroke-opacity:1"
         d="m -9.9172763,293.76641 c -0.075543,0.20441 -0.4347377,0.84852 -0.5288417,0.95945 -0.09265,0.1084 -0.20863,0.18133 -0.347948,0.21879 -0.153251,0.0412 -0.293037,0.021 -0.419358,-0.0606 -0.12433,-0.0822 -0.209427,-0.20913 -0.25529,-0.38089 -0.048,-0.17975 -0.05002,-0.37508 -0.0061,-0.58597 0.04395,-0.21089 0.122299,-0.39679 0.235057,-0.55769 0.11475,-0.16143 0.239793,-0.26035 0.375132,-0.29674 0.09155,-0.0246 0.172124,-0.0184 0.241717,0.0185 0.06906,0.035 0.115055,0.0954 0.137987,0.18124 0.0208,0.0779 0.01094,0.16082 -0.02957,0.24878 -0.03905,0.0854 -0.09241,0.13723 -0.160083,0.15542 -0.02985,0.008 -0.05992,0.003 -0.09021,-0.0143 0.113902,-0.0927 0.149788,-0.21795 0.107658,-0.37573 -0.01493,-0.0559 -0.04132,-0.0949 -0.07918,-0.11678 -0.0364,-0.0245 -0.07848,-0.0303 -0.126245,-0.0174 -0.07364,0.0198 -0.140275,0.0698 -0.199906,0.15008 -0.05764,0.0797 -0.104903,0.18233 -0.141784,0.30784 -0.03741,0.12351 -0.05876,0.25127 -0.06405,0.38327 -0.0038,0.12946 0.01079,0.25611 0.04386,0.37994 0.03946,0.1478 0.10629,0.25826 0.200481,0.33141 0.09419,0.0731 0.198009,0.0945 0.311454,0.064 0.09752,-0.0262 0.183795,-0.0826 0.258815,-0.16914 0.07502,-0.0865 0.419593,-0.69353 0.4849759,-0.84811 z" />
      <path
         inkscape:connector-curvature="0"
         id="path1110"
         style="font-style:normal;font-variant:normal;font-weight:normal;font-stretch:normal;font-size:13.2611px;line-height:1.25;font-family:'.Savoye LET CC.';-inkscape-font-specification:'.Savoye LET CC., Normal';font-variant-ligatures:normal;font-variant-caps:normal;font-variant-numeric:normal;font-feature-settings:normal;text-align:start;letter-spacing:0px;word-spacing:0px;writing-mode:lr-tb;text-anchor:start;fill:#cb5345;fill-opacity:1;stroke:#cb5345;stroke-width:0.18867;stroke-opacity:1"
         d="m -8.651558,292.42272 0.012149,1.17194 q 0.00321,0.19179 0.030413,0.29365 0.023998,0.0899 0.080406,0.14535 0.056409,0.0555 0.1131315,0.0402 0.086577,-0.0233 0.2298032,-0.28977 l 0.052995,0.0307 -0.02244,0.0478 q -0.1094304,0.2253 -0.1760088,0.32347 -0.064393,0.0944 -0.1270863,0.11123 -0.095533,0.0257 -0.1935804,-0.0539 -0.095862,-0.0834 -0.1310593,-0.21521 -0.025597,-0.0959 -0.044341,-0.45366 l -0.00651,-0.12027 q -0.041665,0.28735 -0.1635648,0.57379 -0.2048906,0.47894 -0.4885037,0.5552 -0.1701678,0.0457 -0.301483,-0.0506 -0.1313159,-0.0963 -0.1865114,-0.30305 -0.075193,-0.28161 6.391e-4,-0.63273 0.078818,-0.35192 0.261869,-0.61306 0.1852362,-0.26494 0.4091413,-0.32515 0.2358467,-0.0634 0.3986735,0.079 l 0.00244,-0.12267 z m -0.2409295,0.47579 q -0.066222,-0.10421 -0.1695975,-0.14385 -0.1011899,-0.0434 -0.2116497,-0.0137 -0.1313576,0.0353 -0.2448453,0.19748 -0.1142869,0.15917 -0.1790932,0.40779 -0.049936,0.19645 -0.06042,0.42082 -0.0075,0.22357 0.028499,0.35839 0.040797,0.15279 0.1207174,0.22441 0.082907,0.0708 0.190381,0.0419 0.1373284,-0.0369 0.2522011,-0.20588 0.1148726,-0.16896 0.1971623,-0.44797 0.052765,-0.16189 0.06672,-0.31334 0.013955,-0.15146 0.011054,-0.41397 z" />
    </g>
  </g>
</svg>
