<?xml version="1.0" encoding="UTF-8" standalone="no"?>
<!-- Created with Inkscape (http://www.inkscape.org/) -->

<svg
   width="256"
   height="172"
   viewBox="0 0 67.733332 45.508334"
   version="1.1"
   id="svg5"
   inkscape:version="1.1.1 (3bf5ae0d25, 2021-09-20)"
   sodipodi:docname="main_logo.svg"
   xmlns:inkscape="http://www.inkscape.org/namespaces/inkscape"
   xmlns:sodipodi="http://sodipodi.sourceforge.net/DTD/sodipodi-0.dtd"
   xmlns="http://www.w3.org/2000/svg"
   xmlns:svg="http://www.w3.org/2000/svg">
  <sodipodi:namedview
     id="namedview7"
     pagecolor="#ffffff"
     bordercolor="#666666"
     borderopacity="1.0"
     inkscape:pageshadow="2"
     inkscape:pageopacity="0.0"
     inkscape:pagecheckerboard="0"
     inkscape:document-units="px"
     showgrid="false"
     units="px"
     inkscape:showpageshadow="false"
     inkscape:zoom="2.507684"
     inkscape:cx="66.7947"
     inkscape:cy="132.39308"
     inkscape:window-width="2531"
     inkscape:window-height="1048"
     inkscape:window-x="29"
     inkscape:window-y="0"
     inkscape:window-maximized="1"
     inkscape:current-layer="layer1" />
  <defs
     id="defs2" />
  <g
     inkscape:label="Livello 1"
     inkscape:groupmode="layer"
     id="layer1">
    <path
       id="path27936"
       style="fill:#22241c;stroke-width:0.241627"
       d="m 24.181241,34.623703 h 41.887001 v 5.302305 H 24.181241 Z" />
    <g
       aria-label="next"
       id="text11609"
       style="font-size:4.09976px;line-height:1.25;fill:#ffffff;stroke-width:0.102494"
       transform="translate(0.84791131,-1.6358147)">
      <path
         d="m 25.956434,38.023019 v 0.09839 q 0.127093,-0.09839 0.327981,-0.09839 h 0.188589 q 0.332081,0 0.491971,0.155791 0.163991,0.155791 0.163991,0.50017 v 1.393919 h -0.34848 v -1.475914 q 0,-0.122993 -0.0738,-0.192688 -0.0697,-0.0738 -0.192688,-0.0738 h -0.270585 q -0.135292,0 -0.200888,0.0738 -0.0656,0.0697 -0.0656,0.151691 v 1.516911 h -0.34848 v -2.04988 z"
         style="font-family:'ShureTechMono Nerd Font';-inkscape-font-specification:'ShureTechMono Nerd Font'"
         id="path27823" />
      <path
         d="m 28.567977,40.072899 q -0.360778,0 -0.528869,-0.151691 -0.16809,-0.155791 -0.16809,-0.504271 V 38.67898 q 0,-0.352579 0.151691,-0.50427 0.151691,-0.151691 0.504271,-0.151691 h 0.192689 q 0.291083,0 0.438674,0.16399 0.151691,0.159891 0.151691,0.471473 v 0.532968 h -1.090536 v 0.307482 q 0,0.127093 0.07789,0.196789 0.0779,0.0697 0.229587,0.0697 h 0.651862 v 0.307482 z m 0.401777,-1.496413 q 0,-0.106593 -0.0697,-0.176289 -0.0697,-0.0697 -0.17629,-0.0697 h -0.237786 q -0.147591,0 -0.209088,0.0697 -0.0574,0.0656 -0.0574,0.196788 v 0.286983 h 0.750256 z"
         style="font-family:'ShureTechMono Nerd Font';-inkscape-font-specification:'ShureTechMono Nerd Font'"
         id="path27820" />
      <path
         d="m 30.351369,40.072899 h -0.385377 l 0.639562,-1.057738 -0.590365,-0.992142 h 0.405876 l 0.389477,0.68876 0.397677,-0.68876 h 0.381278 l -0.598565,0.975743 0.651862,1.074137 h -0.409977 l -0.430474,-0.774855 z"
         style="font-family:'ShureTechMono Nerd Font';-inkscape-font-specification:'ShureTechMono Nerd Font'"
         id="path27817" />
      <path
         d="m 33.172,40.072899 q -0.209087,0 -0.319781,-0.135292 -0.110694,-0.135292 -0.110694,-0.356679 v -1.250427 h -0.389477 v -0.307482 h 0.389477 v -0.491971 h 0.34848 v 0.491971 h 0.598565 v 0.307482 h -0.598565 v 1.270925 q 0,0.0902 0.0451,0.127093 0.0451,0.0369 0.139392,0.0369 h 0.414076 v 0.307482 z"
         style="font-family:'ShureTechMono Nerd Font';-inkscape-font-specification:'ShureTechMono Nerd Font'"
         id="path27814" />
    </g>
    <g
       aria-label="generation"
       id="text23639"
       style="font-size:4.09976px;line-height:1.25;fill:#ffffff;stroke-width:0.102494"
       transform="translate(-1.4186045e-6,-1.6358147)">
      <path
         d="m 44.035644,40.0319 q 0,0.278784 -0.168091,0.414076 -0.16399,0.139392 -0.516569,0.139392 h -0.85275 v -0.307482 h 0.893747 q 0.147592,0 0.221387,-0.0574 0.0738,-0.0574 0.0738,-0.147591 v -0.131192 q 0,-0.0943 -0.0738,-0.147592 -0.0738,-0.0574 -0.221387,-0.0574 h -0.709258 v -0.565767 q -0.135292,-0.0738 -0.200889,-0.213188 -0.0656,-0.139392 -0.0656,-0.360779 V 38.49449 q 0,-0.34438 0.16809,-0.50017 0.17219,-0.155791 0.52887,-0.155791 h 0.860949 v 0.758455 q 0,0.307482 -0.16809,0.483772 -0.16809,0.17219 -0.446874,0.17219 h -0.327981 v 0.17629 h 0.319782 q 0.352579,0 0.516569,0.139391 0.168091,0.135292 0.168091,0.414076 z m -0.676461,-1.086436 q 0.127093,0 0.192689,-0.08199 0.0656,-0.082 0.0738,-0.17219 V 38.146011 H 43.0722 q -0.151691,0 -0.229587,0.0697 -0.07789,0.06969 -0.07789,0.196788 v 0.266484 q 0,0.127093 0.07789,0.196789 0.0779,0.0697 0.229587,0.0697 z"
         style="font-family:'ShureTechMono Nerd Font';-inkscape-font-specification:'ShureTechMono Nerd Font'"
         id="path27912" />
      <path
         d="m 45.417259,39.888409 q -0.360779,0 -0.528869,-0.151691 Q 44.7203,39.580927 44.7203,39.232447 V 38.49449 q 0,-0.352579 0.151691,-0.50427 0.151691,-0.151691 0.50427,-0.151691 h 0.192689 q 0.291083,0 0.438674,0.16399 0.151691,0.159891 0.151691,0.471472 v 0.532969 h -1.090536 v 0.307482 q 0,0.127093 0.0779,0.196789 0.07789,0.0697 0.229586,0.0697 h 0.651862 v 0.307482 z m 0.401776,-1.496413 q 0,-0.106594 -0.0697,-0.176289 -0.0697,-0.0697 -0.176289,-0.0697 H 45.33526 q -0.147592,0 -0.209088,0.0697 -0.0574,0.0656 -0.0574,0.196788 v 0.286983 h 0.750256 z"
         style="font-family:'ShureTechMono Nerd Font';-inkscape-font-specification:'ShureTechMono Nerd Font'"
         id="path27909" />
      <path
         d="m 47.233448,37.838529 v 0.09839 q 0.127093,-0.09839 0.327981,-0.09839 h 0.188589 q 0.332081,0 0.491971,0.155791 0.163991,0.15579 0.163991,0.50017 v 1.393919 H 48.0575 v -1.475914 q 0,-0.122993 -0.07379,-0.192689 -0.0697,-0.07379 -0.192689,-0.07379 h -0.270584 q -0.135292,0 -0.200889,0.07379 -0.0656,0.0697 -0.0656,0.151691 v 1.516912 h -0.348479 v -2.04988 z"
         style="font-family:'ShureTechMono Nerd Font';-inkscape-font-specification:'ShureTechMono Nerd Font'"
         id="path27906" />
      <path
         d="m 49.844992,39.888409 q -0.360779,0 -0.528869,-0.151691 -0.16809,-0.155791 -0.16809,-0.504271 V 38.49449 q 0,-0.352579 0.151691,-0.50427 0.151691,-0.151691 0.50427,-0.151691 h 0.192689 q 0.291083,0 0.438674,0.16399 0.151691,0.159891 0.151691,0.471472 v 0.532969 h -1.090536 v 0.307482 q 0,0.127093 0.0779,0.196789 0.0779,0.0697 0.229586,0.0697 h 0.651862 v 0.307482 z m 0.401776,-1.496413 q 0,-0.106594 -0.0697,-0.176289 -0.0697,-0.0697 -0.176289,-0.0697 h -0.237786 q -0.147592,0 -0.209088,0.0697 -0.0574,0.0656 -0.0574,0.196788 v 0.286983 h 0.750256 z"
         style="font-family:'ShureTechMono Nerd Font';-inkscape-font-specification:'ShureTechMono Nerd Font'"
         id="path27903" />
      <path
         d="m 51.68578,39.580927 v -1.434916 h -0.299283 v -0.307482 h 0.627264 v 0.110693 q 0.135292,-0.110693 0.327981,-0.110693 h 0.422275 v 0.32798 h -0.463273 q -0.131192,0 -0.196788,0.0861 -0.0656,0.082 -0.0697,0.168091 v 1.160232 h 0.446873 v 0.307482 h -1.094636 v -0.307482 z"
         style="font-family:'ShureTechMono Nerd Font';-inkscape-font-specification:'ShureTechMono Nerd Font'"
         id="path27900" />
      <path
         d="m 54.899988,39.888409 q -0.0533,0 -0.118893,-0.0328 -0.0615,-0.0328 -0.106594,-0.0902 -0.0943,0.122993 -0.250085,0.122993 h -0.364879 q -0.311582,0 -0.455074,-0.122993 -0.139391,-0.127093 -0.139391,-0.430475 v -0.08199 q 0,-0.635463 0.598565,-0.635463 h 0.50837 v -0.204988 q 0,-0.127093 -0.0779,-0.196788 -0.07789,-0.0697 -0.229586,-0.0697 h -0.635463 v -0.307482 h 0.594465 q 0.356679,0 0.52477,0.155791 0.172189,0.15579 0.172189,0.50017 v 0.983943 q 0,0.0615 0.0451,0.09429 0.0492,0.0287 0.15989,0.0287 v 0.286984 z m -0.51657,-0.307482 q 0.122993,0 0.155791,-0.0574 0.0328,-0.0574 0.0328,-0.147591 v -0.450974 h -0.51247 q -0.106594,0 -0.17629,0.0697 -0.0697,0.0697 -0.0697,0.17629 v 0.204988 q 0,0.106593 0.0492,0.155791 0.0492,0.0492 0.155791,0.0492 z"
         style="font-family:'ShureTechMono Nerd Font';-inkscape-font-specification:'ShureTechMono Nerd Font'"
         id="path27897" />
      <path
         d="m 56.662881,39.888409 q -0.209088,0 -0.319781,-0.135292 -0.110694,-0.135293 -0.110694,-0.35668 v -1.250426 h -0.389477 v -0.307482 h 0.389477 v -0.491972 h 0.34848 v 0.491972 h 0.598565 v 0.307482 h -0.598565 v 1.270925 q 0,0.0902 0.0451,0.127093 0.0451,0.0369 0.139392,0.0369 h 0.414076 v 0.307482 z"
         style="font-family:'ShureTechMono Nerd Font';-inkscape-font-specification:'ShureTechMono Nerd Font'"
         id="path27894" />
      <path
         d="m 58.917745,37.018577 v 0.368978 h -0.389477 v -0.368978 z m -0.971643,1.127434 v -0.307482 h 0.951144 v 1.742398 h 0.606765 v 0.307482 h -0.955244 v -1.742398 z"
         style="font-family:'ShureTechMono Nerd Font';-inkscape-font-specification:'ShureTechMono Nerd Font'"
         id="path27891" />
      <path
         d="m 61.701478,39.232447 q 0,0.34438 -0.17219,0.500171 -0.16809,0.155791 -0.524769,0.155791 h -0.135292 q -0.356679,0 -0.528869,-0.155791 -0.168091,-0.155791 -0.168091,-0.500171 V 38.49449 q 0,-0.34438 0.168091,-0.50017 0.17219,-0.155791 0.528869,-0.155791 h 0.135292 q 0.356679,0 0.524769,0.155791 0.17219,0.15579 0.17219,0.50017 z m -0.34848,-0.819952 q 0,-0.127093 -0.07789,-0.196788 -0.0779,-0.0697 -0.229587,-0.0697 h -0.217287 q -0.151691,0 -0.229586,0.0697 -0.0779,0.06969 -0.0779,0.196788 v 0.901947 q 0,0.127093 0.0779,0.196789 0.07789,0.0697 0.229586,0.0697 h 0.217287 q 0.151691,0 0.229587,-0.0697 0.07789,-0.0697 0.07789,-0.196789 z"
         style="font-family:'ShureTechMono Nerd Font';-inkscape-font-specification:'ShureTechMono Nerd Font'"
         id="path27888" />
      <path
         d="m 62.730514,37.838529 v 0.09839 q 0.127093,-0.09839 0.327981,-0.09839 h 0.188589 q 0.332081,0 0.491971,0.155791 0.163991,0.15579 0.163991,0.50017 v 1.393919 h -0.34848 v -1.475914 q 0,-0.122993 -0.0738,-0.192689 -0.0697,-0.07379 -0.192689,-0.07379 h -0.270584 q -0.135292,0 -0.200889,0.07379 -0.0656,0.0697 -0.0656,0.151691 v 1.516912 h -0.348479 v -2.04988 z"
         style="font-family:'ShureTechMono Nerd Font';-inkscape-font-specification:'ShureTechMono Nerd Font'"
         id="path27885" />
    </g>
    <path
       sodipodi:nodetypes="ssssscscssscscsscscssc"
       inkscape:connector-curvature="0"
       id="path871-6"
       style="font-style:normal;font-variant:normal;font-weight:normal;font-stretch:normal;font-size:medium;line-height:1.25;font-family:OpenDinSchriftenEngshrift;-inkscape-font-specification:OpenDinSchriftenEngshrift;letter-spacing:0px;word-spacing:0px;fill:#cb5345;fill-opacity:1;stroke:none;stroke-width:1.55635"
       d="m 25.824747,2.0028533 c 1.095668,-1.0956527 2.415455,-1.6435037 3.959354,-1.6435037 1.543899,0 2.863683,0.5480851 3.959353,1.6435037 1.09567,1.0957009 1.643506,2.4154749 1.643506,3.9593702 V 27.325502 c 0,1.543871 -0.547836,2.863716 -1.643506,3.959346 -1.09567,1.095724 -2.415454,1.643504 -3.959353,1.643504 -1.543899,0 -2.863686,-0.547499 -3.959354,-1.643504 -1.095672,-1.09563 -1.643506,-2.415475 -1.643506,-3.959346 V 5.9622235 c 0,-1.5438953 0.547836,-2.8636693 1.643506,-3.9593702 z m 5.266689,2.6520008 c -0.348625,-0.373418 -0.784403,-0.5604427 -1.307335,-0.5604427 -0.522936,0 -0.971164,0.1864153 -1.344688,0.5604427 -0.348623,0.3487248 -0.52293,0.7844446 -0.52293,1.3073694 V 27.325502 c 0,0.522807 0.174293,0.971212 0.52293,1.3447 0.373524,0.348725 0.821754,0.522807 1.344688,0.522807 0.52293,0 0.958713,-0.174691 1.307335,-0.522807 0.373523,-0.373441 0.560285,-0.821775 0.560285,-1.3447 V 5.9622235 c 0,-0.5228077 -0.186744,-0.9587616 -0.560285,-1.3073694 z" />
    <path
       sodipodi:nodetypes="cccccccccc"
       inkscape:connector-curvature="0"
       id="path875-9"
       style="font-style:normal;font-variant:normal;font-weight:normal;font-stretch:normal;font-size:medium;line-height:1.25;font-family:OpenDinSchriftenEngshrift;-inkscape-font-specification:OpenDinSchriftenEngshrift;letter-spacing:0px;word-spacing:0px;fill:#cb5345;fill-opacity:1;stroke:none;stroke-width:1.55635"
       d="m 49.645126,6.7817014 c 1.152177,-0.3099193 2.364147,-0.4198919 3.735239,0 v 3.7352256 c -1.201402,0.233547 -2.424771,0.348749 -3.735239,0 z m 0,7.4704746 c 1.245079,-0.487517 2.490158,-0.428709 3.735239,0 v 18.676176 c -1.264045,0.455182 -2.507849,0.424019 -3.735239,0 z" />
    <path
       style="font-style:normal;font-variant:normal;font-weight:normal;font-stretch:normal;font-size:medium;line-height:1.25;font-family:OpenDinSchriftenEngshrift;-inkscape-font-specification:OpenDinSchriftenEngshrift;letter-spacing:0px;word-spacing:0px;fill:#cb5345;fill-opacity:1;stroke:none;stroke-width:1.55635"
       d="m 60.464382,14.253583 c -1.543892,0 -2.861078,0.545341 -3.95675,1.641065 -1.095694,1.095701 -1.644088,2.415897 -1.644088,3.959768 0,1.543943 0.548423,2.864092 1.644088,3.959793 1.095679,1.095466 2.41285,1.64409 3.95675,1.64409 0.522937,0 0.961187,0.185712 1.309799,0.559176 0.373488,0.348609 0.559172,0.783953 0.559172,1.30676 0,0.522925 -0.185688,0.972831 -0.559172,1.346271 -0.348619,0.34814 -0.786881,0.522691 -1.309799,0.522691 -0.522931,0 -0.96974,-0.173988 -1.343228,-0.522691 -0.348612,-0.373558 -0.522705,-0.823463 -0.522705,-1.346271 -1.011296,-0.37344 -2.152726,-0.640472 -3.734905,0 0,1.543872 0.548423,2.864139 1.644088,3.959792 1.095672,1.096006 2.412858,1.644091 3.95675,1.644091 0.978829,0 1.857406,-0.246421 2.656066,-0.68683 1.38277,-0.770158 2.647729,-2.094002 2.899184,-4.394339 0.01501,-0.174222 0.04864,-0.342301 0.04864,-0.522714 0,-1.543941 -0.54842,-2.861042 -1.644087,-3.956743 -1.095672,-1.09549 -2.415884,-1.644091 -3.959788,-1.644091 -0.522932,0 -0.96974,-0.173987 -1.343227,-0.522713 -0.348614,-0.373487 -0.522707,-0.823464 -0.522707,-1.346272 0,-0.5229 0.174082,-0.958011 0.522707,-1.30676 0.373522,-0.374003 0.820307,-0.559152 1.343227,-0.559152 0.522936,0 0.961186,0.185711 1.3098,0.559152 0.373545,0.348679 0.559171,0.783977 0.559171,1.30676 1.245079,0.648258 2.489825,0.522222 3.734904,0 0,-1.543871 -0.54842,-2.864067 -1.644087,-3.959768 -1.095672,-1.095419 -2.415884,-1.641065 -3.959788,-1.641065 z"
       id="path877-1"
       inkscape:connector-curvature="0"
       sodipodi:nodetypes="scscscscsccccsccscscscsccccss" />
    <path
       sodipodi:nodetypes="ssccccccccccccccccccssssccss"
       inkscape:connector-curvature="0"
       id="path4560-6"
       d="m 11.731969,0.3593496 c -5.5455957,0 -10.0669085,4.5213369 -10.0669074,10.0669024 -1.1e-6,5.117818 3.8515307,9.362978 8.8042534,9.988044 V 24.0418 H 5.63115 4.3684963 c -0.342826,0.842644 -0.5097991,1.685359 0,2.528027 H 5.63115 10.469315 v 4.835476 1.265421 c 0.842697,0.35107 1.685396,0.336977 2.528092,0 v -1.265421 -4.835476 h 4.835381 1.266365 c 0.245887,-0.71975 0.430785,-1.469961 0,-2.528027 h -1.266365 -4.835381 v -3.627504 c 4.951864,-0.626355 8.805182,-4.871234 8.805181,-9.988044 1e-6,-5.5455655 -4.525024,-10.0669024 -10.070619,-10.0669024 z m 0,2.5280984 c 4.179367,0 7.542528,3.3593934 7.542527,7.538804 1e-6,3.99269 -3.071421,7.23259 -6.989593,7.514698 H 11.179036 C 7.2611489,17.659264 4.1931532,14.418942 4.1931532,10.426252 4.1931524,6.2468414 7.5526019,2.887448 11.731969,2.887448 Z"
       style="color:#000000;font-style:normal;font-variant:normal;font-weight:normal;font-stretch:normal;font-size:medium;line-height:1.25;font-family:'Futura Hv BT';-inkscape-font-specification:'Futura Hv BT';font-variant-ligatures:normal;font-variant-position:normal;font-variant-caps:normal;font-variant-numeric:normal;font-variant-alternates:normal;font-feature-settings:normal;text-indent:0;text-align:start;text-decoration:none;text-decoration-line:none;text-decoration-style:solid;text-decoration-color:#000000;letter-spacing:0px;word-spacing:0px;text-transform:none;writing-mode:lr-tb;direction:ltr;text-orientation:mixed;dominant-baseline:auto;baseline-shift:baseline;text-anchor:start;white-space:normal;shape-padding:0;clip-rule:nonzero;display:inline;overflow:visible;visibility:visible;isolation:auto;mix-blend-mode:normal;color-interpolation:sRGB;color-interpolation-filters:linearRGB;solid-color:#000000;solid-opacity:1;vector-effect:none;fill:#cb5345;fill-opacity:1;fill-rule:nonzero;stroke:none;stroke-width:2.528;stroke-linecap:butt;stroke-linejoin:miter;stroke-miterlimit:4;stroke-dasharray:none;stroke-dashoffset:0;stroke-opacity:1;color-rendering:auto;image-rendering:auto;shape-rendering:auto;text-rendering:auto;enable-background:accumulate" />
    <path
       sodipodi:nodetypes="ccccscssssccccccscsscscssc"
       inkscape:connector-curvature="0"
       id="path873-2"
       style="font-style:normal;font-variant:normal;font-weight:normal;font-stretch:normal;font-size:medium;line-height:1.25;font-family:OpenDinSchriftenEngshrift;-inkscape-font-specification:OpenDinSchriftenEngshrift;letter-spacing:0px;word-spacing:0px;fill:#cb5345;fill-opacity:1;stroke:none;stroke-width:1.55635"
       d="m 36.913182,14.252176 c 1.566854,-0.68629 2.714643,-0.479287 3.73524,0 v 3.735226 c 0,-1.020948 0.361074,-1.89255 1.08322,-2.614647 0.747049,-0.747092 1.631058,-1.120579 2.65202,-1.120579 1.020968,0 1.892525,0.373417 2.614665,1.120579 0.747048,0.722097 1.120578,1.593699 1.120578,2.614647 v 11.205771 c 0,1.0209 -0.373546,1.904979 -1.120578,2.651952 -0.72214,0.722214 -1.593697,1.083227 -2.614665,1.083227 -1.020962,0 -1.904971,-0.360497 -2.65202,-1.083227 -0.722146,-0.746973 -1.08322,-1.631052 -1.08322,-2.651952 v 15.540402 c -1.661101,0.693349 -2.726791,0.394614 -3.73524,0 z m 6.910196,4.295503 c -0.348625,-0.373439 -0.784401,-0.560441 -1.307335,-0.560441 -0.522937,0 -0.971162,0.186415 -1.344689,0.560441 -0.348623,0.348726 -0.52293,0.784423 -0.52293,1.307348 v 7.470475 c 0,0.522807 0.174293,0.971212 0.52293,1.3447 0.373525,0.348725 0.821755,0.522807 1.344689,0.522807 0.522931,0 0.958714,-0.174691 1.307335,-0.522807 0.373522,-0.373441 0.560284,-0.821775 0.560284,-1.3447 v -7.470475 c 0,-0.522808 -0.186744,-0.958692 -0.560284,-1.307348 z" />
    <path
       inkscape:connector-curvature="0"
       id="path4595-2"
       d="M 10.578415,3.9559252 V 4.4757779 6.4885487 H 7.9385299 7.4195655 v 1.0386495 h 0.5189613 2.6398852 v 8.1321918 0.519853 h 1.039432 V 15.65939 11.603881 c 0.760782,-0.459872 1.366563,-0.663756 1.731133,-0.68418 0.371272,-0.02345 0.448363,0.04127 0.542249,0.241121 0.09387,0.198843 0.131401,0.651 -0.03382,1.297005 -0.165197,0.645351 -0.513075,1.469729 -1.061962,2.415288 -0.09052,0.155933 -0.135575,0.282296 -0.193014,0.514577 -0.05739,0.231671 -0.129054,0.520439 0.03676,0.874183 0.08293,0.177035 0.2629,0.352266 0.47165,0.428709 0.208751,0.07574 0.418617,0.07105 0.635376,0.02931 0.433519,-0.08465 0.932382,-0.321689 1.64927,-0.77809 l 0.440106,-0.277583 -0.559521,-0.877232 -0.437107,0.278756 c -0.632986,0.402234 -1.03058,0.558683 -1.234699,0.606658 0.0024,-0.02345 8.1e-5,-0.01173 0.006,-0.03517 0.03164,-0.12756 0.122443,-0.310505 0.08186,-0.241097 0.583997,-1.006034 0.973716,-1.903267 1.172365,-2.679693 0.198646,-0.77645 0.228073,-1.44785 -0.03382,-2.001539 -0.261871,-0.55397 -0.886478,-0.8716507 -1.541121,-0.8343667 -0.502401,0.02931 -1.052352,0.2098627 -1.671802,0.5322097 V 7.5279935 h 2.636884 0.518961 V 6.4893899 h -0.51883 -2.636881 V 4.4765743 3.9567217 Z"
       style="color:#000000;font-style:normal;font-variant:normal;font-weight:normal;font-stretch:normal;font-size:medium;line-height:1.25;font-family:'Futura Hv BT';-inkscape-font-specification:'Futura Hv BT';font-variant-ligatures:normal;font-variant-position:normal;font-variant-caps:normal;font-variant-numeric:normal;font-variant-alternates:normal;font-feature-settings:normal;text-indent:0;text-align:start;text-decoration:none;text-decoration-line:none;text-decoration-style:solid;text-decoration-color:#000000;letter-spacing:0px;word-spacing:0px;text-transform:none;writing-mode:lr-tb;direction:ltr;text-orientation:mixed;dominant-baseline:auto;baseline-shift:baseline;text-anchor:start;white-space:normal;shape-padding:0;clip-rule:nonzero;display:inline;overflow:visible;visibility:visible;isolation:auto;mix-blend-mode:normal;color-interpolation:sRGB;color-interpolation-filters:linearRGB;solid-color:#000000;solid-opacity:1;vector-effect:none;fill:#cb5345;fill-opacity:1;fill-rule:nonzero;stroke:none;stroke-width:1.03823;stroke-linecap:square;stroke-linejoin:miter;stroke-miterlimit:4;stroke-dasharray:none;stroke-dashoffset:0;stroke-opacity:1;color-rendering:auto;image-rendering:auto;shape-rendering:auto;text-rendering:auto;enable-background:accumulate" />
  </g>
</svg>
